<?xml version="1.0" encoding="iso-8859-1"?>
<!-- Generator: Adobe Illustrator 19.0.0, SVG Export Plug-In . SVG Version: 6.00 Build 0)  -->
<svg version="1.1" id="Layer_1" xmlns="http://www.w3.org/2000/svg" xmlns:xlink="http://www.w3.org/1999/xlink" x="0px" y="0px"
	 viewBox="0 0 285.714 285.714" style="enable-background:new 0 0 285.714 285.714;" xml:space="preserve">
<g>
	<g>
		<g>
			<path d="M285.714,100v-9.524h-90.476V0h-9.524v90.476H100V0h-9.524v90.476H0V100h90.476v85.714H0v9.524h90.476v90.476H100
				v-90.476h85.714v90.476h9.524v-90.476h90.476v-9.524h-90.476V100H285.714z M185.714,185.714H100V100h85.714V185.714z"/>
			<path d="M142.857,180.952c21.005,0,38.095-17.09,38.095-38.095s-17.09-38.095-38.095-38.095s-38.095,17.09-38.095,38.095
				S121.852,180.952,142.857,180.952z M142.857,114.286c15.757,0,28.571,12.814,28.571,28.571s-12.814,28.571-28.571,28.571
				s-28.571-12.814-28.571-28.571S127.1,114.286,142.857,114.286z"/>
			<path d="M47.619,200c-21.005,0-38.095,17.09-38.095,38.095s17.09,38.095,38.095,38.095s38.095-17.09,38.095-38.095
				S68.624,200,47.619,200z M47.619,266.667c-15.757,0-28.571-12.814-28.571-28.571c0-15.757,12.814-28.571,28.571-28.571
				c15.757,0,28.571,12.814,28.571,28.571C76.19,253.853,63.376,266.667,47.619,266.667z"/>
			<path d="M238.095,85.714c21.005,0,38.095-17.09,38.095-38.095c0-21.005-17.09-38.095-38.095-38.095S200,26.614,200,47.619
				S217.09,85.714,238.095,85.714z M238.095,19.048c15.757,0,28.571,12.814,28.571,28.571c0,15.757-12.814,28.571-28.571,28.571
				c-15.757,0-28.571-12.814-28.571-28.571C209.524,31.862,222.338,19.048,238.095,19.048z"/>
			<polygon points="268.062,201.395 238.095,231.362 208.129,201.395 201.395,208.129 231.362,238.095 201.395,268.062 
				208.129,274.795 238.095,244.829 268.062,274.795 274.795,268.062 244.829,238.095 274.795,208.129 			"/>
			<polygon points="17.652,179.557 47.619,149.59 77.586,179.557 84.319,172.824 54.352,142.857 84.319,112.89 77.586,106.157 
				47.619,136.124 17.652,106.157 10.919,112.89 40.886,142.857 10.919,172.824 			"/>
		</g>
	</g>
</g>
<g>
</g>
<g>
</g>
<g>
</g>
<g>
</g>
<g>
</g>
<g>
</g>
<g>
</g>
<g>
</g>
<g>
</g>
<g>
</g>
<g>
</g>
<g>
</g>
<g>
</g>
<g>
</g>
<g>
</g>
</svg>
