<?xml version="1.0" encoding="iso-8859-1"?>
<!-- Generator: Adobe Illustrator 19.0.0, SVG Export Plug-In . SVG Version: 6.00 Build 0)  -->
<svg version="1.1" id="Layer_1" xmlns="http://www.w3.org/2000/svg" xmlns:xlink="http://www.w3.org/1999/xlink" x="0px" y="0px"
	 viewBox="0 0 512 512" style="enable-background:new 0 0 512 512;" xml:space="preserve">
<g>
	<g>
		<g>
			<path d="M401.067,375.467c4.719,0,8.533-3.823,8.533-8.533V358.4h34.133v8.533c0,4.71,3.814,8.533,8.533,8.533
				c4.719,0,8.533-3.823,8.533-8.533v-17.067c0-4.71-3.814-8.533-8.533-8.533h-51.2c-4.719,0-8.533,3.823-8.533,8.533v17.067
				C392.533,371.644,396.348,375.467,401.067,375.467z"/>
			<path d="M93.867,341.333h221.867c4.719,0,8.533-3.823,8.533-8.533c0-4.71-3.814-8.533-8.533-8.533h-76.8V191.889
				c0-4.71-3.814-8.533-8.533-8.533s-8.533,3.823-8.533,8.533v132.378h-34.133V157.756c0-3.635-2.313-6.878-5.76-8.064
				c-27.17-9.361-45.44-35.226-45.44-64.358c0-37.641,30.626-68.267,68.267-68.267c37.641,0,68.267,30.626,68.267,68.267
				c0,35.174-26.342,64.367-61.278,67.908c-4.685,0.486-8.107,4.668-7.629,9.361c0.478,4.685,4.625,8.098,9.353,7.629
				c43.682-4.437,76.621-40.934,76.621-84.898C290.133,38.281,251.853,0,204.8,0s-85.333,38.281-85.333,85.333
				c0,34.321,20.335,65.033,51.2,78.268v160.666h-76.8c-4.719,0-8.533,3.823-8.533,8.533
				C85.333,337.51,89.148,341.333,93.867,341.333z"/>
			<path d="M59.733,375.467h290.133c4.719,0,8.533-3.823,8.533-8.533s-3.814-8.533-8.533-8.533H59.733
				c-4.719,0-8.533,3.823-8.533,8.533S55.014,375.467,59.733,375.467z"/>
			<path d="M236.058,71.603c1.408,3.2,4.531,5.111,7.825,5.111c1.143,0,2.313-0.239,3.413-0.725
				c4.318-1.894,6.289-6.929,4.395-11.247c-5.222-11.896-14.669-21.282-26.598-26.428c-4.369-1.869-9.353,0.128-11.221,4.454
				c-1.86,4.326,0.128,9.353,4.454,11.221C226.287,57.421,232.585,63.676,236.058,71.603z"/>
			<path d="M486.4,392.533H25.6c-14.114,0-25.6,11.486-25.6,25.6v51.2C0,492.86,19.14,512,42.667,512h426.667
				C492.86,512,512,492.86,512,469.333v-51.2C512,404.019,500.514,392.533,486.4,392.533z M494.933,469.333
				c0,14.114-11.486,25.6-25.6,25.6H42.667c-14.114,0-25.6-11.486-25.6-25.6v-51.2c0-4.702,3.823-8.533,8.533-8.533h460.8
				c4.71,0,8.533,3.831,8.533,8.533V469.333z"/>
		</g>
	</g>
</g>
<g>
</g>
<g>
</g>
<g>
</g>
<g>
</g>
<g>
</g>
<g>
</g>
<g>
</g>
<g>
</g>
<g>
</g>
<g>
</g>
<g>
</g>
<g>
</g>
<g>
</g>
<g>
</g>
<g>
</g>
</svg>
